<?xml version="1.0" standalone="no"?>
<!DOCTYPE svg PUBLIC "-//W3C//DTD SVG 20010904//EN"
 "http://www.w3.org/TR/2001/REC-SVG-20010904/DTD/svg10.dtd">
<svg version="1.0" xmlns="http://www.w3.org/2000/svg"
 width="500.000000pt" height="500.000000pt" viewBox="0 0 500.000000 500.000000"
 preserveAspectRatio="xMidYMid meet">
<metadata>
Created by potrace 1.14, written by Peter Selinger 2001-2017
</metadata>
<g transform="translate(0.000000,500.000000) scale(0.100000,-0.100000)"
fill="#000000" stroke="none">
<path d="M2475 4491 c-21 -6 -142 -73 -185 -101 -14 -10 -47 -30 -75 -45 -72
-39 -372 -213 -425 -245 -25 -15 -193 -113 -375 -218 -181 -104 -344 -198
-362 -208 -18 -11 -87 -50 -154 -89 -70 -41 -125 -79 -129 -91 -4 -11 -8 -462
-8 -1002 0 -898 1 -984 17 -1002 12 -15 359 -223 422 -253 8 -4 30 -17 49 -28
53 -32 649 -378 700 -407 25 -13 70 -39 100 -57 113 -67 366 -213 399 -230 21
-10 45 -15 62 -11 16 3 131 65 256 137 126 73 246 142 269 155 22 13 119 69
215 125 96 56 192 112 214 124 70 38 658 380 702 408 75 48 69 -41 69 1051 -1
972 -1 986 -21 1005 -17 17 -167 107 -315 189 -25 13 -49 28 -55 32 -5 4 -30
19 -55 32 -25 14 -85 49 -135 78 -49 29 -105 61 -124 72 -19 11 -102 59 -185
107 -512 299 -803 464 -825 470 -14 4 -35 5 -46 2z"/>
</g>
</svg>
